<svg width="33" height="22" viewBox="0 -1 32 22" class="h-full w-full" xmlns="http://www.w3.org/2000/svg">
  <g>
    <path class="fill-muted-foreground" stroke="none"
      d="M31.78 15a.52.52 0 1 0 0-1.05h-1.12s0 0 0 0h-1.44A6.66 6.66 0 0 0 26.16 1.7v-.6c0-.6-.48-1.09-1.08-1.09h-2.23c-.6 0-1.08.49-1.08 1.08v.6H10.53v-.04a.52.52 0 1 0-1.04 0v.03h-2.3v-.03a.52.52 0 1 0-1.05 0v.05a6.67 6.67 0 0 0-3.06 12.26H1.64s0 0 0 0H.52a.52.52 0 1 0 0 1.05h.84l.83 1.24a1.91 1.91 0 0 0-.3 2.18H.51a.52.52 0 1 0 0 1.05h31.26a.52.52 0 1 0 0-1.05h-1.36a1.9 1.9 0 0 0-.3-2.18l.82-1.24h.84ZM22.8 1.08c0-.02.02-.03.04-.03h2.23c.02 0 .04.01.04.03v.6h-2.3v-.6ZM2.72 17.55a.87.87 0 1 1 1.75 0 .87.87 0 0 1-1.75 0Zm7.23-.32h12.4a1.92 1.92 0 0 0 .19 1.19H9.77a1.9 1.9 0 0 0 .18-1.19Zm16.19 0h.68a1.92 1.92 0 0 0 .18 1.19h-1.05a1.9 1.9 0 0 0 .19-1.19Zm-1.9 1.19a.87.87 0 1 1 0-1.75.87.87 0 0 1 0 1.75Zm-16.18 0a.87.87 0 1 1 0-1.75.87.87 0 0 1 0 1.75Zm-1.71 0H5.3a1.9 1.9 0 0 0 .19-1.19h.68a1.92 1.92 0 0 0 .18 1.19Zm21.49-.87a.87.87 0 1 1 1.74 0 .87.87 0 0 1-1.74 0Zm1.38-1.85a1.91 1.91 0 0 0-1.86.49H25.6a1.91 1.91 0 0 0-2.7 0H9.4a1.91 1.91 0 0 0-2.7 0H4.94a1.91 1.91 0 0 0-1.86-.5L2.62 15h27.07l-.47.7Z" />
    <rect width="30.3" height="11.4" x="1" y="2.58" class="fill-muted" rx="5.7" stroke="none">
      <animate attributeName="fill" attributeType="CSS" dur="9999" repeatCount="0" />
    </rect>
  </g>
</svg>