<svg width="20" height="25" viewBox="-2 -2 208 256" class="h-full w-full" xmlns="http://www.w3.org/2000/svg">
  <g stroke="none">
    <path class="fill-muted-foreground"
      d="M165.74 45.95V22.03h15.42v-8.9H109.2V0H93.79v13.13H21.84v8.9h15.42v23.92C16.12 49.69 0 70.55 0 93.19V252h87.96v-31.5h27.67V252H203V93.19c0-22.65-16.12-43.5-37.26-47.24Zm-50.4 166.72h-28v-118h28v118Zm-.52-125h-27.3C83.9 65.4 67.46 47.8 46.67 43.95V21.67h109v22.28c-20.8 3.86-37.25 21.46-40.85 43.72Z" />
    <path class="fill-muted"
      d="M80.33 245h-73V94h73v151Zm115 0h-73V94h73v151Zm1-157h-73c4.35-19.56 19.07-34 36.5-34 17.44 0 32.15 14.44 36.5 34ZM43.83 54c17.44 0 32.15 14.44 36.5 34h-73c4.35-19.56 19.07-34 36.5-34Z" />
  </g>
</svg>