<svg width="24" height="24" viewBox="-10 -10 150 150" class="h-full w-full fill-muted-foreground" xmlns="http://www.w3.org/2000/svg">
  <path class="fill-muted"
    d="M82 93V81.82a20.38 20.38 0 0 1 6.65-15.23 37 37 0 1 0-49.39-.09A20.59 20.59 0 0 1 46 81.82v10.77z">
    <animate attributeName="fill" attributeType="CSS" dur="9999" repeatCount="0" />
  </path>
  <path stroke="#e4e4e7"
    d="M82 95a2 2 0 0 1-2-2V81.82a22.38 22.38 0 0 1 7.31-16.72 35 35 0 1 0-46.72-.1A22.61 22.61 0 0 1 48 81.82v10.76a2 2 0 0 1-4 0V81.82A18.6 18.6 0 0 0 37.92 68a39 39 0 1 1 52.08.08 18.38 18.38 0 0 0-6 13.74V93a2 2 0 0 1-2 2Z" />
  <path fill="#71717a" d="M82 92v16a18.05 18.05 0 0 1-18 18 18.05 18.05 0 0 1-18-18V92Z" />
  <g fill="#3f3f46">
    <path
      d="M64 128a20 20 0 0 1-20-20V92a2 2 0 0 1 2-2h36a2 2 0 0 1 2 2v16a20 20 0 0 1-20 20ZM48 94v14a16 16 0 0 0 32 0V94Z" />
    <path
      d="M54 104a2 2 0 0 1-.28-4l28-4a2 2 0 0 1 .57 4l-28 4ZM54 112a2 2 0 0 1-.28-4l28-4a2 2 0 0 1 .57 4l-28 4Z" />
  </g>
  <path d="m54 102 28-4M54 110l28-4" />
</svg>