<svg width="20" height="20" viewBox="-6.5 3 21.2 15" class="h-full w-full" xmlns="http://www.w3.org/2000/svg">
  <g class="stroke-muted-foreground fill-muted-foreground" stroke-width=".1">
    <path
      d="M14 7h-2.55a.64.64 0 0 0-.64-.64h-1.9a.64.64 0 0 0-.64.64h-.38a.26.26 0 0 1-.26-.27v-.37c.35 0 .64-.28.64-.64v-1.9a.64.64 0 0 0-.64-.64V.64A.64.64 0 0 0 7 0H1.27a.64.64 0 0 0-.63.64v2.54a.64.64 0 0 0-.64.64v1.9c0 .36.28.64.64.64v1.49c0 3.4 2.75 6.14 6.14 6.14h1.49c0 .35.28.64.63.64h1.91c.35 0 .64-.29.64-.64h2.54c.35 0 .64-.28.64-.63V7.63a.64.64 0 0 0-.64-.63Z" />
    <path class="fill-muted"
      d="M1.27 4.45h5.72v.64H1.27zm.64-3.18h4.45v1.91H1.91zM1.9 7.85v-1.5h4.46v.38c0 .85.68 1.54 1.53 1.54h.38v4.45h-1.5a4.87 4.87 0 0 1-4.86-4.87Zm7.64 5.5V7.63h.63v5.72zm3.81-.63h-1.9V8.27h1.9z" />
  </g>
</svg>