<svg width="20" height="20" viewBox="-3.9 0 18.5 26.67" class="h-full w-full"
  xmlns="http://www.w3.org/2000/svg">
  <g class="fill-muted-foreground" stroke="none">
    <path
      d="M18.5 17.85v-8.9a.95.95 0 0 0-.15-.46c-.25-.31-.65-.49-.81-.49h-1.56a.97.97 0 0 0-.98.94v1.28H9.56a.68.68 0 0 1-.67-.67V7.1h.83c.52 0 .95-.42.95-.95V4.5a.95.95 0 0 0-.95-.94h-.83V.95A.95.95 0 0 0 7.94 0H2.73a.95.95 0 0 0-.95.95v2.6H.95A.95.95 0 0 0 0 4.5v1.66c0 .53.42.95.95.95h.83v12.45H.95a.95.95 0 0 0-.95.94v1.66c0 .53.42.95.95.95h.83v2.6c0 .53.42.96.95.96h5.21c.52 0 .95-.43.95-.95v-2.6h.83c.52 0 .95-.43.95-.96V20.5a.95.95 0 0 0-.95-.94h-.83v-2.44c0-.37.3-.68.67-.68H15v1.4c0 .53.46.83.98.83h1.56c.16 0 .55-.05.8-.32.08-.08.13-.24.16-.5Z" />
    <g class="fill-muted">
      <path
        d="M2.73.89h5.21c.03 0 .06.03.06.06v2.6H2.67V.96c0-.03.02-.06.06-.06ZM.89 6.16V4.5c0-.03.03-.06.06-.06h8.77c.03 0 .06.03.06.06v1.66c0 .04-.03.06-.06.06H.95a.06.06 0 0 1-.06-.06ZM8 25.72c0 .03-.03.06-.06.06H2.73a.06.06 0 0 1-.06-.06v-2.6H8v2.6ZM9.72 20.44c.03 0 .06.03.06.06v1.66c0 .04-.03.06-.06.06H.95a.06.06 0 0 1-.06-.06V20.5c0-.03.03-.06.06-.06h8.77ZM8 7.11v2.44c0 .86.7 1.56 1.56 1.56h5.48v4.45H9.56c-.86 0-1.56.7-1.56 1.56v2.44H2.67V7.1H8ZM17.6 8.89c.04 0 .07.03.07.06v8.77c0 .03-.03.06-.06.06h-1.66a.06.06 0 0 1-.06-.06V8.95c0-.03.03-.06.06-.06h1.66Z" />
    </g>
  </g>
</svg>