<svg width="19.52" height="24.23" viewBox="0 0 19.52 24.23" class="h-full w-full"
  xmlns="http://www.w3.org/2000/svg">
  <defs>
    <clipPath id="twin_tank_clip_wave_high">
      <path
        d="M0 3.77C5.63 3.77 10.88 0 16.5 0 22.13 0 27.38 3.77 33 3.77 38.63 3.77 43.88 0 49.5 0 55.13 0 60.38 3.77 66 3.77V13H0V3.77Z">
        <animateTransform attributeName="transform" attributeType="XML" dur="3" from="-32 1"
          repeatCount="indefinite" to="0.2 1" type="translate" />
      </path>
    </clipPath>
    <clipPath id="twin_tank_clip_wave_low">
      <path
        d="M0 2.53C6.17 2.53 12.07 0 18.23 0c6.18 0 11.8 2.53 17.96 2.53C42.37 2.53 48.13 0 54.3 0c6.18 0 11.93 2.53 18.1 2.53V13H0V2.53Z">
        <animateTransform attributeName="transform" attributeType="XML" dur="6" from="-32 1"
          repeatCount="indefinite" to="0.2 1" type="translate" />
      </path>
    </clipPath>
  </defs>
  <g class="fill-muted">
    <path class="fill-gray-300"
      d="M15.94 4.42v-2.3h1.48v-.86H10.5V0H9.02v1.26H2.1v.86h1.48v2.3C1.55 4.78 0 6.78 0 8.96v15.27h8.46V21.2h2.66v3.03h8.4V8.96c0-2.18-1.55-4.18-3.58-4.54Zm-4.85 16.03h-2.7V9.1h2.7v11.35Zm-.05-12.02H8.42a5.02 5.02 0 0 0-3.93-4.2V2.08h10.48v2.15a5.02 5.02 0 0 0-3.93 4.2Z" />
    <path
      d="M18.88 8.46h-7.02c.42-1.88 1.83-3.27 3.5-3.27 1.69 0 3.1 1.4 3.52 3.27ZM4.21 5.2c1.68 0 3.1 1.38 3.51 3.26H.7C1.12 6.58 2.54 5.2 4.21 5.2Z" />
    <path d="M7.02 14.52H0V0h7.02zM18.08 14.52h-7.02V0h7.02z"
      clip-path="url(#twin_tank_clip_wave_low)"
      transform="translate(.7 9.3)">
      <animate attributeName="fill" attributeType="CSS" dur="9999" repeatCount="0" />
    </path>
  </g>
</svg>