<svg width="24" height="24" viewBox="0 45 490 490"
  class="h-full w-full stroke-muted-foreground fill-muted-foreground" xmlns="http://www.w3.org/2000/svg">
  <rect width="300" height="190" x="100" y="200" rx="5" class="fill-muted" />
  <path
    d="M469.1 180.95c-11.5 0-20.9 9.4-20.9 20.9v24h-44.8v-1c0-31.3-25-56.3-56.3-56.3h-81.3v-55.3H294c11.5 0 20.9-9.4 20.9-20.9s-9.4-20.9-20.9-20.9h-98c-11.5 0-20.9 9.4-20.9 20.9s9.4 20.9 20.9 20.9h28.1v55.3h-81.3c-31.3 0-56.3 25-56.3 56.3v1H41.7v-24c0-11.5-9.4-20.9-20.9-20.9S0 190.35 0 201.75v183.5c0 11.5 9.4 20.9 20.9 20.9 10.4 0 19.8-9.4 20.9-20.9v-22.9h44.8c0 31.3 25 56.3 56.3 56.3h204.3c31.3 0 56.3-25 56.3-56.3l44.8-.1v23c0 11.5 9.4 20.9 20.9 20.9s20.9-9.4 20.9-20.9v-183.5c-.1-11.4-9.5-20.8-21-20.8zM85.5 319.55H41.7v-52.1h43.8v52.1zm277.3 42.8c0 8.3-7.3 15.6-15.6 15.6H142.8c-8.3 0-15.6-7.3-15.6-15.6v-137.6c0-8.3 7.3-15.6 15.6-15.6h204.3c8.3 0 15.6 7.3 15.6 15.6v137.6h.1zm40.7-42.8v-52.1h44.8v52.1h-44.8z" />
</svg>